<?xml version="1.0" encoding="UTF-8"?>
<!-- GENERATED by scripts/build-gpi-mark.mjs — do not hand-edit.
     The GPI / Vienna Insurance Group tree emblem, cut from the official
     "GPI Logo - ENG (color).svg" lockup: only the four gradient-filled emblem
     paths are kept, and the viewBox is retargeted to a square centred on them
     with the emblem at 62% of the box, so a circular avatar mask leaves
     padding around it. Do not raise that past ~70%: a square inscribed in a
     circle is only 1/√2 of the diameter, so the emblem's corners would sit on
     (or outside) the arc. The gradients are userSpaceOnUse, so the
     original coordinate system is preserved verbatim — do NOT re-origin the
     path data or the fills will slide off the artwork. -->
<svg xmlns="http://www.w3.org/2000/svg" xmlns:xlink="http://www.w3.org/1999/xlink" viewBox="1093 4 821 821"><defs>
    <style>
      .st0 {
        fill: url(#linear-gradient2);
      }

      .st1 {
        fill: url(#linear-gradient1);
      }

      .st2 {
        fill: url(#linear-gradient3);
      }

      .st3 {
        fill: #231f20;
      }

      .st4 {
        fill: url(#linear-gradient);
      }

      .st5 {
        fill: #ec2227;
      }

      .st6 {
        fill: #272661;
      }
    </style>
    <linearGradient id="linear-gradient" x1="1255.38" y1="318.38" x2="1751.5" y2="318.38" gradientUnits="userSpaceOnUse">
      <stop offset="0" stop-color="#2a3c90"/>
      <stop offset="1" stop-color="#282962"/>
    </linearGradient>
    <linearGradient id="linear-gradient1" x1="1249.2" y1="502.88" x2="1758.61" y2="502.88" xlink:href="#linear-gradient"/>
    <linearGradient id="linear-gradient2" x1="1249.2" y1="503.73" x2="1758.61" y2="503.73" xlink:href="#linear-gradient"/>
    <linearGradient id="linear-gradient3" x1="1251.89" y1="236.29" x2="1757.11" y2="236.29" xlink:href="#linear-gradient"/>
  </defs><path class="st4" d="M1432.23,331.92q7.98,3.24,10.71,4.46c4.83,2.17,8.33.45,12.36-1.52,3.24-1.59,6.91-3.39,11.39-2.93,1.87.19,5.11,1.51,9.49,3.36,1.69.72,3.61,1.52,4.25,1.69,8.98,2.4,16.92.79,22.17-.27l1.99-.39c1.07-.2,2.26-.53,3.53-.89,4.86-1.37,11.53-3.23,17.88.25,1.02.68,1.91,1.33,2.83,2.01,2.97,2.18,6.63,4.87,9.15,4.45.35-.07,1.41-.27,2.61-2.18,5.63-8.98,12.71-6.35,15.38-5.38.32.12.59.23.8.28,5.37.99,8.7-.04,12.21-1.12,2.65-.81,13.53-3.62,17.01-3.46,11.88.56,20.55,7.41,26.85,13.87l-29.83-51.54c-4.38,6.02-12.64,12.53-17.97,14.12-1.51.44-5,.58-8.55-.02-19.27-3.28-24.84.62-28.52,3.21-2.46,1.73-5.01,3.48-9.44,2.12-5.31-1.65-7.92-.72-11.53.59-2.61.94-5.58,2.01-9.88,2.25-.11,0-.22,0-.33,0-2.66,0-5.66-1.58-8.83-3.25-1.91-1.01-4.08-2.15-5.21-2.32-3.09-.45-5.45-2.08-8.19-3.95-3.01-2.07-6.75-4.64-13.02-6.73-4.66-1.56-9.08-2.09-19.13-.46-9.48,1.53-15.84-.14-19.13-2.92l-25.05,43.28c8.58-4.57,22.17-11.45,34-6.63Z"/><path class="st1" d="M1295.9,515.33c2,.33,3.5,1.18,4.76,1.91,1.55.9,2.64,1.52,4.36,1.36,2.23-.25,5.46-.16,9.2-.08,9.44.22,25.16.58,27.64-5.54.59-3.24,3.61-4.23,5.84-4.96,1.61-.53,3.14-1.03,3.95-2.1,3.17-4.19,2.11-6.39,1.75-7.11-4-8.21-31.3-11.4-41.19-11.67l-16.32,28.19Z"/><path class="st0" d="M1754.01,588.07l-49.19-84.99c-2.13,6.96-6.43,10.27-13.37,10.27-.34,0-.68,0-1.02-.02-.31-.02-.66-.01-1.01,0-2.97.03-7.35.09-16.1-6.06-2.27-1.6-4.17-3.17-5.94-4.63-5.99-4.94-9.94-8.22-22.29-6.77-7.12.85-22.98-.69-26.51-5.61-.95-1.33-1.11-2.9-.44-4.33,2.8-5.92,10.34-5.76,16.99-5.65,3.98.08,8.08.16,10.78-.95,7.07-2.88,11.2-1,14.53.51,1.39.64,2.6,1.18,3.94,1.38l1.76.27c7.56,1.16,13.03,2.03,19-2.57,1.36-1.05,2.86-1.75,4.41-2.21l-18.04-31.17c-9.38-.97-12.2,3.89-15.87,10.54l-.86,1.56c-4.77,8.48-15.34,7.65-23.07,7.03l-2.71-.2c-7.78-.48-12.78-1.87-16.43-2.89-6.76-1.89-8.59-2.4-18.45,6.52-8.59,7.77-19.69,7.28-28.6,6.88-.49,0-1.39.09-2.72.21-3.01.27-7.53.69-12.27.69-5.41,0-11.1-.54-15.13-2.44-2.89-1.38-9.3-.84-15.51-.32-2.09.17-3.8.4-5.52.62-7.13.92-14.49,1.87-17.84-2.8-7.12-9.96-17.2-10.44-26.94-10.91-7.66-.36-14.88-.7-19.13-6.19-3.72-4.8-8.5-4.2-13.54-3.57-3.64.46-7.39.92-10.06-1.38-1.58-1.35-1.5-2.75-1.32-3.46.56-2.16,2.75-2.61,6.05-3.29,4.62-.95,11.6-2.38,15.23-7.67,3.75-5.45,8.62-4.09,12.54-3,1.37.38,2.79.78,4.18.92,3.3.27,11.13-2.94,14.43-4.35.78-.33,1.43-.61,1.91-.8,9.25-3.65,15.34-3.5,19.77-3.36,2.09.05,3.73.1,4.93-.31,5.89-2.06,9.18-4.69,11.83-6.8,4.01-3.21,7.48-5.96,14.72-.28,1.31,1.03,3.8,3.19,6.14,5.23,2.22,1.93,4.29,3.75,4.97,4.24,13.11,9.39,18.21,7.44,26.66,4.19l1.87-.71c5.54-2.09,7.41-4.87,9.58-8.1,2.62-3.89,5.58-8.3,14.65-11.46,5.82-2.03,16.19-2.05,23.12-.05l.88.26c9.5,2.77,12.69,3.34,16.28-3.04l1.19-2.13c.6-1.07,1.21-2.15,1.35-2.44,1.3-2.46,3.35-4.05,5.83-5.12l-11.76-20.31c-.45.89-.96,1.7-1.42,2.46-3.67,5.96-12.3,3.6-21.43,1.09-5.68-1.55-12.1-3.35-17.62-3.22-9.42.16-12.8,3.05-17.48,7.04l-.87.73c-9.74,8.22-19.07,13.75-31.41,13.76-2.18,0-4.45-.17-6.83-.54-10.97-1.65-20.79-5.04-29.46-8.02-3.29-1.13-6.47-2.23-9.58-3.19-17.17-5.29-22.23-3.44-29.91-.65-1.09.4-2.22.81-3.43,1.22l-.86.29c-5.41,1.84-10.53,3.57-16.09.38-2-1.15-4.01-2.71-5.95-4.22-5.44-4.22-9.29-6.85-12.89-5.24-.59.27-1.27.75-2.08,1.3-3.2,2.16-8.54,5.74-15.83,4.44-3.37-.62-9.23-3.78-15.99-7.53-1.63-.9-3.01-1.67-3.9-2.11-2.44-1.23-5.61-3.41-8.02-6.42l-17.1,29.55c2.37.82,4.84,1.5,7.64,1.85,3.7.46,7.15.53,11.95-.64,6-1.47,12.23-2.98,17.14,2.73l.76.88q6.75,7.86,26.29,7.73l8.02-.04h.05c5.63,0,7.66,2.3,7.67,4.46.01,1.37-.81,4.54-8.57,4.62-1.51,0-2.9-.12-4.35-.26-4.56-.44-8.52-.82-14.33,4.06-7.76,6.51-10.93,6.31-20.04,2.74-1.77-.69-5.88-1.18-7.47-.88-4.23.8-7.69,2.16-11.03,3.47-4.91,1.93-9.99,3.92-17.34,4.15-.44.03-2.04-.12-4-.31-2.63-.25-5.73-1.56-9.26-.55-1.17.44-2.37.87-3.56,1.29l-17.53,30.29c2.42.55,4.55,1.86,6.42,3.09,1.93,1.25,3.58,2.34,5.21,2.34,5.13,0,10.2-4.32,15.1-8.5,5.46-4.68,10.99-9.59,17.71-9.17,4.54.23,7.53,3.85,11.3,8.44,1.13,1.37,2.35,2.86,3.73,4.38,7.48,8.29,27.12,9.83,35.5,9.33l.66-.04c4.37-.24,8.15-.47,10.79,2.73,3.16,3.87-.39,12.46-2.28,15.07-.4.57-1.27,2.1-.37,3.64,1.2,2.04,8.1,8.39,47.14,4.31,12.71-1.33,19.07-1.24,30.84.45,11.07,1.58,16.41,4.76,15.84,9.44-.64,5.38-9.82,8.85-17.02,8.2-11.27-1.08-19.96.08-25.79,3.45-3.85,2.23-10.97,7-11.04,7.05-9.04,6.14-17.18,6.68-23.72,7.12-5.59.37-10,.67-13.61,4.11-1.49,1.42-1.56,3.13-1.62,4.64-.04.83-.06,1.55-.34,2.26-2.71,6.96-13.62,6.42-24.21,5.88-5.22-.26-10.35-.51-13.08.19-2.54.67-4.69.96-6.55.96-4.97,0-7.85-2.03-10.66-4-2.38-1.67-4.63-3.25-8.53-3.96-4.65-.85-7.31.07-10.39,1.13-3.07,1.05-6.53,2.24-11.83,1.37-1.45-.24-2.65-.74-3.81-1.23-2.6-1.09-5.56-2.31-13.2-1.26-19.16,2.67-33.89-5.9-42.83-11.19l-31.3,54.08c-13.05,22.55,3.22,50.77,29.27,50.77h204.71c.5-11.38.75-24.61.13-27.93-.5-2.66-.42-4.99-5.86-10.06-5.04-4.7-6.53-4.93-11.3-10.1-4.65-5.07-12.28-8.53-18.52-21.02-1.94-3.87-7.76-7.63-8.25-9.4-1.12-4.1,6.51-2.93,12.47-3.41,3.71-.3,7.09,7.94,10.47,11.71,7.36,8.22,7.47,7.3,15.72,11.7,2.65,1.41,4.94,1.52,6.03-2.65,1.65-6.36-.16-12.07-1.42-18.11-1-4.81-4.03-10.84.03-11.79,5.05-1.18,5.25,3.34,12.94,3.44,9.64.12,9.89,4.95,22.39,5.05,3.16.03,8.53.82,8.68,3.98.05,1.34-.12,3.65-.57,4.92-3.07,8.6-1.85,15.42,0,23.85,1.7,7.71-.45,23.31,2.47,37.22,1.01,4.78.57,9,.09,12.6h191.44c26.05,0,42.33-28.22,29.27-50.77ZM1696.47,537.81c-1.19,4.5-5.22,3.63-8.47,2.94-4.49-.96-10.64-2.28-18.63,2.78-1.14.72-4.7,1.41-7.78,1.49-7.45.21-8.04.81-10.23,3.04-2.61,2.67-8.46,5.52-14.15,5.54-1.39.05-3.74-.05-6.54-.43h-.02c-2.31-.34-5.45-.79-6.84-.24-6.91,2.72-12.64,3.73-17.53,3.73-7.85,0-13.53-2.6-18.47-4.85-3.25-1.48-6.33-2.89-9.54-3.34-4.46-.66-7.32.54-9.2,1.34l-.93.38c-5.81,2.25-15.42.91-23.75-7.2-4.66-4.53-10.17-4.99-15.03-5.4-4.85-.4-9.45-.79-11.97-5.09-.62-1.06-.61-2.29.03-3.36,1.42-2.37,5.79-3.63,11.71-3.42,4.26.16,5.89-.64,7.5-1.42,2.74-1.32,4.99-2.06,11.18-.17,2.91.9,6.62-1.45,9.89-3.51,2.39-1.51,4.46-2.82,6.45-3.12,4.14-.62,4.82-1.34,6.86-3.46.91-.95,2.03-2.11,3.68-3.53,3.82-3.31,11.41-6.13,20.14-3.24,2.94.98,5.08,2.39,7.15,3.75,4.23,2.79,8.25,5.41,19.72,4.29,4.92-.48,8.34.66,11.34,1.67,3.34,1.12,5.97,2,10.31.74,8.15-2.38,12.57.99,17.27,4.55,3.75,2.85,7.99,6.06,15.24,7.67,1.27.28,5.47.75,7.11.49,7.31-1.19,11.11,2.27,12.09,3.36,1.22,1.35,1.73,2.81,1.41,4.03Z"/><path class="st2" d="M1430.42,282.93c3.49-1.78,7.64-3.6,12.8-4.2,4.64-.53,8.47-1.93,10.28-3.74,4.5-4.52,6.98-5.03,10-5.26,1.79-.14,3.64-.28,7.64-3.12,2.37-1.65,5.8-1.21,10.17-.64l.7.09c4.13.59,8.75.87,11.2-.21,3.13-1.37,9.2-2.01,10.99-2.18.79-.08,1.54-.24,2.28-.4,5.36-1.12,10.32-1.22,20.9,8.44,3.76,3.44,7.71,2.5,9.62,2.06.41-.1.73-.16.93-.19l.56-.07c3.92-.46,5.55-.16,11.37,3.82,3.97,2.73,8.15,4.03,13.97,4.35l1.22.07c1.44.09,5.76.35,6.82.25,1.61-.49,3.05-.85,4.35-1.1l-43.05-74.38c-13.03-22.51-45.52-22.51-58.55,0l-44.21,76.39Z"/></svg>
